<svg width="319" height="92" viewBox="0 0 319 92" fill="none" xmlns="http://www.w3.org/2000/svg">
<mask id="path-1-outside-1_301_20" maskUnits="userSpaceOnUse" x="18" y="16" width="277" height="54" fill="black">
<rect fill="white" x="18" y="16" width="277" height="54"/>
<path d="M36.14 58H42.14V64H30.14V58H24.14V34H36.14V58ZM48.14 34V58H42.14V34H48.14ZM66.14 34V58H60.14V64H48.14V58H54.14V34H66.14ZM85.82 64V58H79.82V40H85.82V34H115.82V40H121.82V52H91.82V58H115.82V64H85.82ZM91.82 46H109.82V40H91.82V46ZM153.5 28V22H165.5V28H153.5ZM141.5 64V58H153.5V40H147.5V34H165.5V58H177.5V64H141.5ZM197.18 64V58H191.18V22H203.18V34H227.18V40H233.18V58H227.18V64H197.18ZM203.18 58H221.18V40H203.18V58ZM252.86 64V58H246.86V40H252.86V34H282.86V40H288.86V58H282.86V64H252.86ZM258.86 58H276.86V40H258.86V58Z"/>
</mask>
<path d="M36.14 58H42.14V64H30.14V58H24.14V34H36.14V58ZM48.14 34V58H42.14V34H48.14ZM66.14 34V58H60.14V64H48.14V58H54.14V34H66.14ZM85.82 64V58H79.82V40H85.82V34H115.82V40H121.82V52H91.82V58H115.82V64H85.82ZM91.82 46H109.82V40H91.82V46ZM153.5 28V22H165.5V28H153.5ZM141.5 64V58H153.5V40H147.5V34H165.5V58H177.5V64H141.5ZM197.18 64V58H191.18V22H203.18V34H227.18V40H233.18V58H227.18V64H197.18ZM203.18 58H221.18V40H203.18V58ZM252.86 64V58H246.86V40H252.86V34H282.86V40H288.86V58H282.86V64H252.86ZM258.86 58H276.86V40H258.86V58Z" fill="#C5C5C5"/>
<path d="M36.14 58H30.14V64H36.14V58ZM42.14 58H48.14V52H42.14V58ZM42.14 64V70H48.14V64H42.14ZM30.14 64H24.14V70H30.14V64ZM30.14 58H36.14V52H30.14V58ZM24.14 58H18.14V64H24.14V58ZM24.14 34V28H18.14V34H24.14ZM36.14 34H42.14V28H36.14V34ZM48.14 34H54.14V28H48.14V34ZM48.14 58V64H54.14V58H48.14ZM42.14 58H36.14V64H42.14V58ZM42.14 34V28H36.14V34H42.14ZM66.14 34H72.14V28H66.14V34ZM66.14 58V64H72.14V58H66.14ZM60.14 58V52H54.14V58H60.14ZM60.14 64V70H66.14V64H60.14ZM48.14 64H42.14V70H48.14V64ZM48.14 58V52H42.14V58H48.14ZM54.14 58V64H60.14V58H54.14ZM54.14 34V28H48.14V34H54.14ZM36.14 64H42.14V52H36.14V64ZM36.14 58V64H48.14V58H36.14ZM42.14 58H30.14V70H42.14V58ZM36.14 64V58H24.14V64H36.14ZM30.14 52H24.14V64H30.14V52ZM30.14 58V34H18.14V58H30.14ZM24.14 40H36.14V28H24.14V40ZM30.14 34V58H42.14V34H30.14ZM42.14 34V58H54.14V34H42.14ZM48.14 52H42.14V64H48.14V52ZM48.14 58V34H36.14V58H48.14ZM42.14 40H48.14V28H42.14V40ZM60.14 34V58H72.14V34H60.14ZM66.14 52H60.14V64H66.14V52ZM54.14 58V64H66.14V58H54.14ZM60.14 58H48.14V70H60.14V58ZM54.14 64V58H42.14V64H54.14ZM48.14 64H54.14V52H48.14V64ZM60.14 58V34H48.14V58H60.14ZM54.14 40H66.14V28H54.14V40ZM85.82 64H79.82V70H85.82V64ZM85.82 58H91.82V52H85.82V58ZM79.82 58H73.82V64H79.82V58ZM79.82 40V34H73.82V40H79.82ZM85.82 40V46H91.82V40H85.82ZM85.82 34V28H79.82V34H85.82ZM115.82 34H121.82V28H115.82V34ZM115.82 40H109.82V46H115.82V40ZM121.82 40H127.82V34H121.82V40ZM121.82 52V58H127.82V52H121.82ZM91.82 52V46H85.82V52H91.82ZM91.82 58H85.82V64H91.82V58ZM115.82 58H121.82V52H115.82V58ZM115.82 64V70H121.82V64H115.82ZM91.82 46H85.82V52H91.82V46ZM109.82 46V52H115.82V46H109.82ZM109.82 40H115.82V34H109.82V40ZM91.82 40V34H85.82V40H91.82ZM91.82 64V58H79.82V64H91.82ZM85.82 52H79.82V64H85.82V52ZM85.82 58V40H73.82V58H85.82ZM79.82 46H85.82V34H79.82V46ZM91.82 40V34H79.82V40H91.82ZM85.82 40H115.82V28H85.82V40ZM109.82 34V40H121.82V34H109.82ZM115.82 46H121.82V34H115.82V46ZM115.82 40V52H127.82V40H115.82ZM121.82 46H91.82V58H121.82V46ZM85.82 52V58H97.82V52H85.82ZM91.82 64H115.82V52H91.82V64ZM109.82 58V64H121.82V58H109.82ZM115.82 58H85.82V70H115.82V58ZM91.82 52H109.82V40H91.82V52ZM115.82 46V40H103.82V46H115.82ZM109.82 34H91.82V46H109.82V34ZM85.82 40V46H97.82V40H85.82ZM153.5 28H147.5V34H153.5V28ZM153.5 22V16H147.5V22H153.5ZM165.5 22H171.5V16H165.5V22ZM165.5 28V34H171.5V28H165.5ZM141.5 64H135.5V70H141.5V64ZM141.5 58V52H135.5V58H141.5ZM153.5 58V64H159.5V58H153.5ZM153.5 40H159.5V34H153.5V40ZM147.5 40H141.5V46H147.5V40ZM147.5 34V28H141.5V34H147.5ZM165.5 34H171.5V28H165.5V34ZM165.5 58H159.5V64H165.5V58ZM177.5 58H183.5V52H177.5V58ZM177.5 64V70H183.5V64H177.5ZM159.5 28V22H147.5V28H159.5ZM153.5 28H165.5V16H153.5V28ZM159.5 22V28H171.5V22H159.5ZM165.5 22H153.5V34H165.5V22ZM147.5 64V58H135.5V64H147.5ZM141.5 64H153.5V52H141.5V64ZM159.5 58V40H147.5V58H159.5ZM153.5 34H147.5V46H153.5V34ZM153.5 40V34H141.5V40H153.5ZM147.5 40H165.5V28H147.5V40ZM159.5 34V58H171.5V34H159.5ZM165.5 64H177.5V52H165.5V64ZM171.5 58V64H183.5V58H171.5ZM177.5 58H141.5V70H177.5V58ZM197.18 64H191.18V70H197.18V64ZM197.18 58H203.18V52H197.18V58ZM191.18 58H185.18V64H191.18V58ZM191.18 22V16H185.18V22H191.18ZM203.18 22H209.18V16H203.18V22ZM203.18 34H197.18V40H203.18V34ZM227.18 34H233.18V28H227.18V34ZM227.18 40H221.18V46H227.18V40ZM233.18 40H239.18V34H233.18V40ZM233.18 58V64H239.18V58H233.18ZM227.18 58V52H221.18V58H227.18ZM227.18 64V70H233.18V64H227.18ZM203.18 58H197.18V64H203.18V58ZM221.18 58V64H227.18V58H221.18ZM221.18 40H227.18V34H221.18V40ZM203.18 40V34H197.18V40H203.18ZM203.18 64V58H191.18V64H203.18ZM197.18 52H191.18V64H197.18V52ZM197.18 58V22H185.18V58H197.18ZM191.18 28H203.18V16H191.18V28ZM197.18 22V34H209.18V22H197.18ZM203.18 40H227.18V28H203.18V40ZM221.18 34V40H233.18V34H221.18ZM227.18 46H233.18V34H227.18V46ZM227.18 40V58H239.18V40H227.18ZM233.18 52H227.18V64H233.18V52ZM221.18 58V64H233.18V58H221.18ZM227.18 58H197.18V70H227.18V58ZM203.18 64H221.18V52H203.18V64ZM227.18 58V40H215.18V58H227.18ZM221.18 34H203.18V46H221.18V34ZM197.18 40V58H209.18V40H197.18ZM252.86 64H246.86V70H252.86V64ZM252.86 58H258.86V52H252.86V58ZM246.86 58H240.86V64H246.86V58ZM246.86 40V34H240.86V40H246.86ZM252.86 40V46H258.86V40H252.86ZM252.86 34V28H246.86V34H252.86ZM282.86 34H288.86V28H282.86V34ZM282.86 40H276.86V46H282.86V40ZM288.86 40H294.86V34H288.86V40ZM288.86 58V64H294.86V58H288.86ZM282.86 58V52H276.86V58H282.86ZM282.86 64V70H288.86V64H282.86ZM258.86 58H252.86V64H258.86V58ZM276.86 58V64H282.86V58H276.86ZM276.86 40H282.86V34H276.86V40ZM258.86 40V34H252.86V40H258.86ZM258.86 64V58H246.86V64H258.86ZM252.86 52H246.86V64H252.86V52ZM252.86 58V40H240.86V58H252.86ZM246.86 46H252.86V34H246.86V46ZM258.86 40V34H246.86V40H258.86ZM252.86 40H282.86V28H252.86V40ZM276.86 34V40H288.86V34H276.86ZM282.86 46H288.86V34H282.86V46ZM282.86 40V58H294.86V40H282.86ZM288.86 52H282.86V64H288.86V52ZM276.86 58V64H288.86V58H276.86ZM282.86 58H252.86V70H282.86V58ZM258.86 64H276.86V52H258.86V64ZM282.86 58V40H270.86V58H282.86ZM276.86 34H258.86V46H276.86V34ZM252.86 40V58H264.86V40H252.86Z" fill="#4B4B4B" mask="url(#path-1-outside-1_301_20)"/>
</svg>
